<svg width="1366" height="768" viewBox="0 0 1366 768" fill="none" xmlns="http://www.w3.org/2000/svg">
  <defs>
    <radialGradient id="skin" cx="0" cy="0" r="1" gradientUnits="userSpaceOnUse" gradientTransform="translate(683 384) rotate(90) scale(420 760)">
      <stop stop-color="#D7B29A"/>
      <stop offset="1" stop-color="#5A382D"/>
    </radialGradient>
    <radialGradient id="sclera" cx="0" cy="0" r="1" gradientUnits="userSpaceOnUse" gradientTransform="translate(683 384) rotate(90) scale(250 500)">
      <stop stop-color="#F6EADF"/>
      <stop offset="1" stop-color="#D8B8A1"/>
    </radialGradient>
    <radialGradient id="irisBase" cx="0" cy="0" r="1" gradientUnits="userSpaceOnUse" gradientTransform="translate(683 384) rotate(90) scale(210)">
      <stop stop-color="#FFE59C"/>
      <stop offset="0.45" stop-color="#F5A623"/>
      <stop offset="0.8" stop-color="#667785"/>
      <stop offset="1" stop-color="#1A1F27"/>
    </radialGradient>
    <radialGradient id="pupil" cx="0" cy="0" r="1" gradientUnits="userSpaceOnUse" gradientTransform="translate(683 384) rotate(90) scale(94)">
      <stop stop-color="#040507"/>
      <stop offset="1" stop-color="#000000"/>
    </radialGradient>
    <filter id="blur"><feGaussianBlur stdDeviation="2"/></filter>
  </defs>

  <rect width="1366" height="768" fill="url(#skin)"/>

  <ellipse cx="683" cy="384" rx="590" ry="282" fill="url(#sclera)"/>
  <ellipse cx="683" cy="384" rx="235" ry="235" fill="url(#irisBase)"/>

  <g opacity="0.55" stroke-linecap="round">
    <path d="M683 384 L683 160" stroke="#FFD98A" stroke-width="2"/>
    <path d="M683 384 L790 175" stroke="#F5C15B" stroke-width="2"/>
    <path d="M683 384 L873 235" stroke="#F5B04A" stroke-width="2"/>
    <path d="M683 384 L915 330" stroke="#C8D3D9" stroke-width="2"/>
    <path d="M683 384 L912 438" stroke="#B6C1CC" stroke-width="2"/>
    <path d="M683 384 L860 534" stroke="#B8CDD9" stroke-width="2"/>
    <path d="M683 384 L778 590" stroke="#ECC36E" stroke-width="2"/>
    <path d="M683 384 L683 618" stroke="#F4D487" stroke-width="2"/>
    <path d="M683 384 L590 590" stroke="#D0DCE2" stroke-width="2"/>
    <path d="M683 384 L504 530" stroke="#BFD0DB" stroke-width="2"/>
    <path d="M683 384 L453 438" stroke="#CBD6DD" stroke-width="2"/>
    <path d="M683 384 L451 330" stroke="#9EA8B2" stroke-width="2"/>
    <path d="M683 384 L497 236" stroke="#B4C9D8" stroke-width="2"/>
    <path d="M683 384 L577 176" stroke="#DEC97A" stroke-width="2"/>
  </g>

  <circle cx="683" cy="384" r="97" fill="url(#pupil)"/>
  <ellipse cx="804" cy="306" rx="52" ry="38" fill="white" opacity="0.78"/>
  <circle cx="746" cy="350" r="12" fill="white" opacity="0.9"/>

  <ellipse cx="683" cy="122" rx="620" ry="190" fill="#2B1914" opacity="0.76" filter="url(#blur)"/>
  <ellipse cx="683" cy="646" rx="620" ry="170" fill="#2B1914" opacity="0.82" filter="url(#blur)"/>
</svg>
