<svg width="1536" height="1024" viewBox="0 0 1536 1024" fill="none" xmlns="http://www.w3.org/2000/svg">
  <defs>
    <linearGradient id="gBug" x1="0" y1="0" x2="1" y2="1">
      <stop offset="0" stop-color="#00A9C3"/>
      <stop offset="1" stop-color="#01293A"/>
    </linearGradient>
    <linearGradient id="gEye" x1="0" y1="0" x2="1" y2="1">
      <stop offset="0" stop-color="#F2D36A"/>
      <stop offset="1" stop-color="#0F5B8A"/>
    </linearGradient>
    <linearGradient id="gGrid" x1="0" y1="0" x2="1" y2="1">
      <stop offset="0" stop-color="#3E4EC9"/>
      <stop offset="1" stop-color="#CB5AA7"/>
    </linearGradient>
    <linearGradient id="gTiger" x1="0" y1="0" x2="1" y2="1">
      <stop offset="0" stop-color="#595E66"/>
      <stop offset="1" stop-color="#121722"/>
    </linearGradient>
    <linearGradient id="gPetals" x1="0" y1="0" x2="1" y2="1">
      <stop offset="0" stop-color="#0B6D6F"/>
      <stop offset="1" stop-color="#F18A58"/>
    </linearGradient>

    <pattern id="gridPattern" width="34" height="34" patternUnits="userSpaceOnUse">
      <rect width="34" height="34" fill="url(#gGrid)"/>
      <path d="M0 0H34V34" stroke="#FF5B7E" stroke-width="1" opacity="0.65"/>
    </pattern>

    <pattern id="leafPattern" width="62" height="44" patternUnits="userSpaceOnUse">
      <rect width="62" height="44" fill="#0B4A48"/>
      <ellipse cx="14" cy="10" rx="9" ry="16" transform="rotate(-22 14 10)" fill="#F26532"/>
      <ellipse cx="37" cy="20" rx="9" ry="16" transform="rotate(18 37 20)" fill="#F8EEDF"/>
      <ellipse cx="52" cy="11" rx="8" ry="14" transform="rotate(-12 52 11)" fill="#F98B84"/>
    </pattern>

    <pattern id="skullPattern" width="52" height="52" patternUnits="userSpaceOnUse">
      <rect width="52" height="52" fill="#FFE81F"/>
      <circle cx="24" cy="20" r="13" fill="#FF2A95"/>
      <rect x="14" y="30" width="20" height="9" rx="3" fill="#FF2A95"/>
      <circle cx="20" cy="18" r="2.2" fill="#FFE81F"/>
      <circle cx="28" cy="18" r="2.2" fill="#FFE81F"/>
    </pattern>

    <pattern id="dotPattern" width="34" height="34" patternUnits="userSpaceOnUse">
      <rect width="34" height="34" fill="#12B66B"/>
      <circle cx="17" cy="17" r="6.8" fill="#E92995"/>
    </pattern>

    <linearGradient id="gRight" x1="0" y1="0" x2="1" y2="1">
      <stop offset="0" stop-color="#A5DCC5"/>
      <stop offset="1" stop-color="#F3A579"/>
    </linearGradient>
  </defs>

  <rect width="1536" height="1024" fill="#000"/>

  <!-- top row -->
  <g>
    <rect x="390" y="390" width="230" height="230" rx="36" fill="url(#gBug)"/>
    <ellipse cx="505" cy="505" rx="86" ry="70" fill="url(#gEye)"/>
    <ellipse cx="490" cy="505" rx="38" ry="46" fill="#7EC36A"/>
    <ellipse cx="506" cy="505" rx="20" ry="33" fill="#2A2622"/>

    <rect x="622" y="330" width="230" height="230" rx="22" fill="url(#gridPattern)"/>

    <rect x="872" y="420" width="210" height="210" rx="22" fill="#C8CEC8"/>
    <rect x="910" y="505" width="96" height="110" fill="#1E2A3A"/>
    <ellipse cx="972" cy="478" rx="42" ry="56" fill="#F3D4CC"/>
    <circle cx="950" cy="444" r="24" fill="#26C2B3"/>
    <circle cx="986" cy="438" r="20" fill="#C22E98"/>
    <circle cx="1012" cy="454" r="15" fill="#FF4CA4"/>

    <rect x="1100" y="385" width="230" height="230" rx="28" fill="url(#gTiger)"/>
    <path d="M1166 520C1166 475 1201 440 1248 440C1288 440 1318 468 1318 507C1318 554 1280 592 1236 592C1196 592 1166 564 1166 520Z" fill="none" stroke="#C3C9CE" stroke-width="5" opacity="0.75"/>
    <path d="M1188 532C1208 552 1240 558 1267 548" stroke="#C3C9CE" stroke-width="4" opacity="0.7"/>
  </g>

  <!-- bottom row -->
  <g>
    <rect x="365" y="650" width="250" height="170" rx="18" fill="url(#leafPattern)"/>

    <rect x="622" y="620" width="230" height="280" rx="18" fill="url(#gPetals)"/>
    <circle cx="686" cy="806" r="57" fill="#E86A4A"/>
    <circle cx="736" cy="846" r="60" fill="#F6C9B4"/>
    <circle cx="772" cy="788" r="56" fill="#FFD079"/>
    <circle cx="815" cy="722" r="50" fill="#497B4E"/>
    <circle cx="675" cy="694" r="54" fill="#1E8C82"/>

    <rect x="872" y="660" width="210" height="170" rx="18" fill="url(#skullPattern)"/>

    <rect x="1100" y="620" width="240" height="170" rx="18" fill="url(#dotPattern)"/>

    <rect x="1355" y="630" width="190" height="170" rx="18" fill="url(#gRight)"/>
    <circle cx="1380" cy="762" r="70" fill="#C7E6D3"/>
    <circle cx="1465" cy="770" r="62" fill="#F2BC97"/>
    <circle cx="1518" cy="726" r="74" fill="#1E785E" opacity="0.45"/>
    <path d="M1210 807L1415 560" stroke="#F3F0DF" stroke-width="16" stroke-linecap="round"/>
  </g>
</svg>
