<svg width="1536" height="1024" viewBox="0 0 1536 1024" fill="none" xmlns="http://www.w3.org/2000/svg">
  <defs>
    <linearGradient id="g1" x1="0" y1="0" x2="1" y2="1">
      <stop offset="0" stop-color="#5B2EE5"/>
      <stop offset="1" stop-color="#F44C9C"/>
    </linearGradient>
    <linearGradient id="g2" x1="0" y1="0" x2="1" y2="1">
      <stop offset="0" stop-color="#00B9FF"/>
      <stop offset="1" stop-color="#0A2435"/>
    </linearGradient>
    <linearGradient id="g3" x1="0" y1="0" x2="1" y2="1">
      <stop offset="0" stop-color="#DFF3FF"/>
      <stop offset="1" stop-color="#38A184"/>
    </linearGradient>
    <pattern id="dots" width="28" height="28" patternUnits="userSpaceOnUse">
      <rect width="28" height="28" fill="#14D36E"/>
      <circle cx="14" cy="14" r="7" fill="#E62E95"/>
    </pattern>
    <pattern id="skulls" width="44" height="44" patternUnits="userSpaceOnUse">
      <rect width="44" height="44" fill="#FFE100"/>
      <circle cx="22" cy="18" r="11" fill="#FF298C"/>
      <rect x="14" y="26" width="16" height="8" rx="2" fill="#FF298C"/>
    </pattern>
    <pattern id="grid" width="38" height="38" patternUnits="userSpaceOnUse">
      <rect width="38" height="38" fill="url(#g1)"/>
      <path d="M0 0H38V38" stroke="#EE4077" stroke-width="1" opacity="0.65"/>
    </pattern>
  </defs>

  <rect width="1536" height="1024" fill="#010101"/>

  <text x="300" y="200" fill="#F5F5F5" font-family="Inter, Arial, sans-serif" font-size="122" font-weight="800">UNBLANK</text>
  <text x="300" y="288" fill="#F5F5F5" font-family="Inter, Arial, sans-serif" font-size="92" font-weight="800">THE CANVAS</text>

  <text x="300" y="378" fill="#D9D9D9" font-family="Inter, Arial, sans-serif" font-size="28">
    Move seamlessly from idea to execution. One prompt intelligently curates all the visuals you
  </text>
  <text x="300" y="424" fill="#D9D9D9" font-family="Inter, Arial, sans-serif" font-size="28">
    need, so you spend less time searching and more time doing what you do best:
  </text>
  <text x="1130" y="494" fill="#F15BB5" font-family="Inter, Arial, sans-serif" font-size="74" font-weight="800">BE CREATIVE!</text>

  <rect x="390" y="575" width="230" height="230" rx="34" fill="url(#g2)"/>
  <circle cx="498" cy="684" r="78" fill="#D9AC2F"/>
  <circle cx="480" cy="684" r="44" fill="#7EC247"/>
  <circle cx="468" cy="684" r="18" fill="#2E2E2E"/>

  <rect x="622" y="518" width="230" height="230" rx="28" fill="url(#grid)"/>
  <rect x="844" y="602" width="190" height="190" rx="24" fill="#CED8D3"/>
  <circle cx="934" cy="690" r="68" fill="#D95BAC"/>
  <rect x="1066" y="565" width="190" height="190" rx="24" fill="#293544"/>
  <path d="M1157 613C1184 613 1206 635 1206 662C1206 689 1184 711 1157 711C1130 711 1108 689 1108 662C1108 635 1130 613 1157 613Z" stroke="#D7DDE5" stroke-width="4" fill="none"/>

  <rect x="370" y="785" width="230" height="135" rx="18" fill="#073A35"/>
  <ellipse cx="430" cy="830" rx="24" ry="10" fill="#FF6B2F"/>
  <ellipse cx="470" cy="860" rx="24" ry="10" fill="#F7D9C8"/>
  <ellipse cx="520" cy="835" rx="24" ry="10" fill="#5DBF6D"/>

  <rect x="622" y="740" width="230" height="280" rx="18" fill="url(#g1)"/>
  <circle cx="737" cy="866" r="86" fill="#F7F3F9"/>
  <circle cx="705" cy="850" r="18" fill="#18181B"/>
  <circle cx="769" cy="850" r="18" fill="#18181B"/>
  <rect x="682" y="900" width="110" height="36" rx="18" fill="#171717"/>

  <rect x="844" y="798" width="190" height="122" rx="16" fill="url(#skulls)"/>
  <rect x="1066" y="752" width="220" height="132" rx="16" fill="url(#dots)"/>

  <text x="1202" y="802" fill="#F6F0CB" font-family="Times New Roman, serif" font-size="230" font-weight="700">X</text>

  <rect x="1282" y="730" width="126" height="141" rx="14" fill="url(#g3)"/>
</svg>
